<?xml version="1.0" encoding="UTF-8"?><svg id="Layer_1" xmlns="http://www.w3.org/2000/svg" xmlns:xlink="http://www.w3.org/1999/xlink" viewBox="0 0 1000 1000"><defs><style>.cls-1{fill:url(#OPIUM_Gradient_1);}</style><linearGradient id="OPIUM_Gradient_1" x1="5" y1="500" x2="995" y2="500" gradientTransform="matrix(1, 0, 0, 1, 0, 0)" gradientUnits="userSpaceOnUse"><stop offset="0" stop-color="#31eda9"/><stop offset=".06" stop-color="#71ee74"/><stop offset=".13" stop-color="#adf042"/><stop offset=".18" stop-color="#d9f11e"/><stop offset=".22" stop-color="#f4f108"/><stop offset=".25" stop-color="#fff200"/><stop offset=".27" stop-color="#fedb0e"/><stop offset=".38" stop-color="#f96759"/><stop offset=".46" stop-color="#f71e89"/><stop offset=".5" stop-color="#f6029c"/><stop offset=".5" stop-color="#ef059d"/><stop offset=".56" stop-color="#bd20ab"/><stop offset=".61" stop-color="#9139b7"/><stop offset=".66" stop-color="#6c4dc1"/><stop offset=".72" stop-color="#4e5ec9"/><stop offset=".78" stop-color="#366bcf"/><stop offset=".84" stop-color="#2574d4"/><stop offset=".91" stop-color="#1c7ad7"/><stop offset="1" stop-color="#197cd8"/></linearGradient></defs><path class="cls-1" d="M792.67,255.43c-67.36,0-96.54,35.63-149.61,35.63-33.64,0-54.53-16.74-80.06-35.29-35.36-25.7-103.9-104.5-230.49-104.5C157.38,151.27,3.93,297.3,5.01,499.99h0c-1.07,202.7,152.38,348.74,327.5,348.74,126.59,0,195.13-78.8,230.49-104.5,25.52-18.55,46.42-35.29,80.06-35.29,53.07,0,82.25,35.63,149.61,35.63,116.16,0,202.33-111.15,202.33-245.2s-86.17-243.94-202.33-243.94Zm4.62,367.47c-22.36,0-37.12-8.31-56.13-18.56-27.55-14.85-64.43-30.92-102.63-30.92-61.87,0-106.81,28.77-140.54,50.21-30.17,19.18-60.22,38.42-111.88,38.42-81.5,0-153.14-69.94-153.14-162.04s71.64-162.05,153.14-162.05c51.66,0,81.71,19.24,111.88,38.42,33.73,21.44,78.67,50.21,140.54,50.21,38.2,0,75.08-16.08,102.63-30.92,19-10.24,33.77-18.56,56.13-18.56,53.24,0,92.76,56.31,92.76,122.9s-39.52,122.9-92.76,122.9Z"/></svg>