<?xml version="1.0" encoding="UTF-8"?><svg id="Layer_1" xmlns="http://www.w3.org/2000/svg" xmlns:xlink="http://www.w3.org/1999/xlink" viewBox="0 0 1000 1000"><defs><style>.cls-1{fill:url(#linear-gradient-2);}.cls-2{fill:url(#linear-gradient);}</style><linearGradient id="linear-gradient" x1="6.62" y1="500" x2="989.33" y2="500" gradientTransform="matrix(1, 0, 0, 1, 0, 0)" gradientUnits="userSpaceOnUse"><stop offset="0" stop-color="#31eda9"/><stop offset=".06" stop-color="#71ee74"/><stop offset=".13" stop-color="#adf042"/><stop offset=".18" stop-color="#d9f11e"/><stop offset=".22" stop-color="#f4f108"/><stop offset=".25" stop-color="#fff200"/><stop offset=".27" stop-color="#fedb0e"/><stop offset=".38" stop-color="#f96759"/><stop offset=".46" stop-color="#f71e89"/><stop offset=".5" stop-color="#f6029c"/><stop offset=".5" stop-color="#ef059d"/><stop offset=".56" stop-color="#bd20ab"/><stop offset=".61" stop-color="#9139b7"/><stop offset=".66" stop-color="#6c4dc1"/><stop offset=".72" stop-color="#4e5ec9"/><stop offset=".78" stop-color="#366bcf"/><stop offset=".84" stop-color="#2574d4"/><stop offset=".91" stop-color="#1c7ad7"/><stop offset="1" stop-color="#197cd8"/></linearGradient><linearGradient id="linear-gradient-2" x1="5" y1="500" x2="995" y2="500" xlink:href="#linear-gradient"/></defs><path class="cls-2" d="M761.92,408.71c-16.61,0-27.57,6.17-41.69,13.78-20.46,11.03-47.86,22.97-76.23,22.97-45.96,0-79.34-21.37-104.39-37.3-22.41-14.25-44.73-28.54-83.11-28.54-60.54,0-113.75,51.95-113.75,120.37s53.21,120.37,113.75,120.37c38.38,0,60.7-14.29,83.11-28.54,25.05-15.92,58.43-37.3,104.39-37.3,28.38,0,55.77,11.94,76.23,22.97,14.12,7.61,25.08,13.78,41.69,13.78,39.55,0,68.9-41.82,68.9-91.29s-29.35-91.29-68.9-91.29Z"/><path class="cls-1" d="M500,5C226.62,5,5,226.62,5,500s221.62,495,495,495,495-221.62,495-495S773.38,5,500,5Zm258.48,676.67c-50.04,0-71.71-26.46-111.13-26.46-24.99,0-40.51,12.43-59.47,26.21-26.27,19.09-77.18,77.62-171.21,77.62-130.08,0-244.07-108.48-243.27-259.04h0c-.8-150.57,113.19-259.05,243.27-259.05,94.03,0,144.95,58.53,171.21,77.62,18.96,13.78,34.48,26.21,59.47,26.21,39.42,0,61.1-26.46,111.13-26.46,86.28,0,150.29,81.62,150.29,181.2s-64.01,182.14-150.29,182.14Z"/></svg>