<?xml version="1.0" encoding="UTF-8"?><svg id="Layer_1" xmlns="http://www.w3.org/2000/svg" xmlns:xlink="http://www.w3.org/1999/xlink" viewBox="0 0 3741 500"><defs><style>.cls-1{fill:url(#OPIUM_Gradient_1);}.cls-2{fill:#197cd8;}</style><linearGradient id="OPIUM_Gradient_1" x1="23.63" y1="267.96" x2="632.91" y2="267.96" gradientTransform="matrix(1, 0, 0, 1, 0, 0)" gradientUnits="userSpaceOnUse"><stop offset="0" stop-color="#31eda9"/><stop offset=".06" stop-color="#71ee74"/><stop offset=".13" stop-color="#adf042"/><stop offset=".18" stop-color="#d9f11e"/><stop offset=".22" stop-color="#f4f108"/><stop offset=".25" stop-color="#fff200"/><stop offset=".27" stop-color="#fedb0e"/><stop offset=".38" stop-color="#f96759"/><stop offset=".46" stop-color="#f71e89"/><stop offset=".5" stop-color="#f6029c"/><stop offset=".5" stop-color="#ef059d"/><stop offset=".56" stop-color="#bd20ab"/><stop offset=".61" stop-color="#9139b7"/><stop offset=".66" stop-color="#6c4dc1"/><stop offset=".72" stop-color="#4e5ec9"/><stop offset=".78" stop-color="#366bcf"/><stop offset=".84" stop-color="#2574d4"/><stop offset=".91" stop-color="#1c7ad7"/><stop offset="1" stop-color="#197cd8"/></linearGradient></defs><g><path class="cls-1" d="M508.39,117.44c-41.46,0-59.42,21.93-92.08,21.93-20.7,0-33.56-10.3-49.27-21.72-21.76-15.82-63.94-64.31-141.85-64.31-107.78,0-202.22,89.88-201.56,214.62h0c-.66,124.75,93.78,214.63,201.56,214.63,77.91,0,120.09-48.5,141.85-64.31,15.71-11.42,28.57-21.72,49.27-21.72,32.66,0,50.62,21.93,92.08,21.93,71.49,0,124.52-68.41,124.52-150.91s-53.03-150.13-124.52-150.13Zm2.84,226.15c-13.76,0-22.85-5.12-34.54-11.42-16.95-9.14-39.65-19.03-63.16-19.03-38.08,0-65.73,17.71-86.49,30.9-18.57,11.81-37.06,23.64-68.86,23.64-50.16,0-94.24-43.04-94.24-99.73s44.09-99.73,94.24-99.73c31.8,0,50.29,11.84,68.86,23.64,20.76,13.19,48.41,30.9,86.49,30.9,23.51,0,46.21-9.89,63.16-19.03,11.7-6.3,20.78-11.42,34.54-11.42,32.77,0,57.09,34.65,57.09,75.63s-24.32,75.63-57.09,75.63Z"/><path class="cls-2" d="M1251.65,405.64c-68.98,0-125.1-56.12-125.1-125.1v-113.53c0-19.82,16.07-35.88,35.88-35.88s35.88,16.07,35.88,35.88v113.53c0,29.41,23.93,53.33,53.33,53.33s53.33-23.93,53.33-53.33v-113.53c0-19.82,16.07-35.88,35.88-35.88s35.88,16.07,35.88,35.88v113.53c0,68.98-56.12,125.1-125.1,125.1Z"/><path class="cls-2" d="M1686.05,131.12c-29.83,0-59.04,12.71-75.59,31.87-16.55-19.16-45.77-31.87-75.59-31.87-61.47,0-111.48,50.01-111.48,111.48v127.16c0,19.82,16.07,35.88,35.88,35.88s35.88-16.07,35.88-35.88v-127.16c0-21.89,17.81-39.71,39.71-39.71s39.71,17.82,39.71,39.71v127.16c0,19.82,16.07,35.88,35.88,35.88s35.88-16.07,35.88-35.88v-127.16c0-21.89,17.82-39.71,39.71-39.71s39.71,17.82,39.71,39.71v127.16c0,19.82,16.07,35.88,35.88,35.88s35.88-16.07,35.88-35.88v-127.16c0-61.47-50.01-111.48-111.48-111.48Z"/><path class="cls-2" d="M816.81,131.12c-75.69,0-137.26,61.58-137.26,137.26v195.73c0,19.82,16.07,35.88,35.88,35.88s35.88-16.07,35.88-35.88v-77.21c16.52,11.89,41.79,18.74,65.5,18.74,75.68,0,137.26-61.58,137.26-137.26s-61.58-137.26-137.26-137.26Zm0,202.76c-36.12,0-65.5-29.38-65.5-65.49s29.38-65.5,65.5-65.5,65.49,29.38,65.49,65.5-29.38,65.49-65.49,65.49Z"/><path class="cls-2" d="M1034.07,405.64c-19.82,0-35.88-16.07-35.88-35.88V167c0-19.82,16.07-35.88,35.88-35.88s35.88,16.07,35.88,35.88v202.75c0,19.82-16.07,35.88-35.88,35.88Z"/><circle class="cls-2" cx="1887.81" cy="369.76" r="35.88"/></g><g><path class="cls-2" d="M2686.86,139.42c-73.4,0-133.11,59.71-133.11,133.11s59.71,133.12,133.11,133.12c36.04,0,67.5-14.8,92.74-40.41v20.22c0,11.15,9.04,20.18,20.18,20.18s20.18-9.04,20.18-20.18v-112.93c0-73.4-59.71-133.11-133.11-133.11Zm0,225.86c-51.14,0-92.74-41.61-92.74-92.75s41.61-92.74,92.74-92.74,92.74,41.61,92.74,92.74-41.61,92.75-92.74,92.75Z"/><path class="cls-2" d="M3411.76,325.27c-3.87-2.97-8.07-4.24-12.22-4.24-5.11,0-11.05,3.1-15.4,8.2-19.45,22.75-45.23,36.05-74.27,36.05-51.14,0-92.75-41.61-92.75-92.74s41.61-92.74,92.75-92.74c29.04,0,54.81,13.29,74.27,36.05,4.36,5.09,10.29,8.2,15.4,8.2,4.15,0,8.36-1.27,12.22-4.25,5.16-3.97,7.89-10,7.89-15.98,0-3.89-1.35-8.64-4.18-12.32-25.43-33.09-63.92-52.06-105.6-52.06-73.4,0-133.12,59.71-133.12,133.11s59.71,133.11,133.12,133.11c41.68,0,80.17-18.98,105.6-52.06,2.83-3.68,4.18-8.43,4.18-12.32,0-5.99-2.72-12.02-7.89-15.98Z"/><path class="cls-2" d="M2481.28,405.65c-11.15,0-20.18-9.04-20.18-20.18v-126.47c0-43.67-35.53-79.19-79.19-79.19s-79.19,35.53-79.19,79.19v126.47c0,11.15-9.04,20.18-20.18,20.18s-20.18-9.04-20.18-20.18v-126.47c0-65.93,53.63-119.56,119.56-119.56s119.56,53.63,119.56,119.56v126.47c0,11.15-9.04,20.18-20.18,20.18Z"/><path class="cls-2" d="M3109.3,405.65c-11.15,0-20.18-9.04-20.18-20.18v-126.47c0-43.67-35.53-79.19-79.19-79.19s-79.19,35.53-79.19,79.19v126.47c0,11.15-9.04,20.18-20.18,20.18s-20.18-9.04-20.18-20.18v-126.47c0-65.93,53.63-119.56,119.56-119.56s119.56,53.63,119.56,119.56v126.47c0,11.15-9.04,20.18-20.18,20.18Z"/><path class="cls-2" d="M3717.36,272.53c0-73.4-59.71-133.11-133.11-133.11s-133.11,59.71-133.11,133.11,59.71,133.11,133.11,133.11c20.21,0,39.63-4.42,57.72-13.14,10.04-4.84,14.26-16.91,9.42-26.95-4.84-10.04-16.91-14.26-26.95-9.42-12.58,6.06-26.1,9.14-40.19,9.14-42.87,0-78.94-29.29-89.51-68.87h202.47c11.15-.01,20.18-9.06,20.16-20.21v-3.66Zm-133.12-92.74c46.43,0,84.88,34.33,91.6,78.93h-183.19c6.71-44.59,45.17-78.93,91.6-78.93Z"/><path class="cls-2" d="M2171.78,405.65c-11.15,0-20.18-9.04-20.18-20.18V159.62c0-11.15,9.04-20.18,20.18-20.18s20.18,9.04,20.18,20.18v225.85c0,11.15-9.04,20.18-20.18,20.18Z"/><path class="cls-2" d="M2097.76,142.21h-79.24c.49-50.72,41.86-91.84,92.7-91.84,11.15,0,20.18-9.04,20.18-20.18s-9.04-20.18-20.18-20.18c-73.4,0-133.11,59.71-133.11,133.11v242.35c0,11.15,9.04,20.18,20.18,20.18s20.18-9.04,20.18-20.18V179.89h79.29c10.41,0,18.84-8.43,18.84-18.84s-8.43-18.84-18.84-18.84Z"/></g></svg>