<?xml version="1.0" encoding="UTF-8"?><svg id="Layer_1" xmlns="http://www.w3.org/2000/svg" xmlns:xlink="http://www.w3.org/1999/xlink" viewBox="0 0 2100 500"><defs><style>.cls-1{fill:#197cd8;}.cls-2{fill:url(#linear-gradient);}</style><linearGradient id="linear-gradient" x1="7.8" y1="240.44" x2="676.19" y2="240.44" gradientTransform="matrix(1, 0, 0, 1, 0, 0)" gradientUnits="userSpaceOnUse"><stop offset="0" stop-color="#31eda9"/><stop offset=".06" stop-color="#71ee74"/><stop offset=".13" stop-color="#adf042"/><stop offset=".18" stop-color="#d9f11e"/><stop offset=".22" stop-color="#f4f108"/><stop offset=".25" stop-color="#fff200"/><stop offset=".27" stop-color="#fedb0e"/><stop offset=".38" stop-color="#f96759"/><stop offset=".46" stop-color="#f71e89"/><stop offset=".5" stop-color="#f6029c"/><stop offset=".5" stop-color="#ef059d"/><stop offset=".56" stop-color="#bd20ab"/><stop offset=".61" stop-color="#9139b7"/><stop offset=".66" stop-color="#6c4dc1"/><stop offset=".72" stop-color="#4e5ec9"/><stop offset=".78" stop-color="#366bcf"/><stop offset=".84" stop-color="#2574d4"/><stop offset=".91" stop-color="#1c7ad7"/><stop offset="1" stop-color="#197cd8"/></linearGradient></defs><path class="cls-2" d="M539.59,75.33c-45.48,0-65.18,24.05-101.01,24.05-22.71,0-36.82-11.3-54.05-23.83C360.66,58.2,314.39,5,228.92,5,110.68,5,7.08,103.6,7.81,240.44h0c-.72,136.85,102.88,235.45,221.11,235.45,85.47,0,131.74-53.2,155.62-70.55,17.23-12.53,31.34-23.83,54.05-23.83,35.83,0,55.53,24.05,101.01,24.05,78.42,0,136.6-75.04,136.6-165.55s-58.18-164.69-136.6-164.69Zm3.12,248.09c-15.09,0-25.06-5.61-37.89-12.53-18.6-10.02-43.5-20.88-69.29-20.88-41.77,0-72.11,19.43-94.88,33.9-20.37,12.95-40.66,25.94-75.54,25.94-55.02,0-103.39-47.22-103.39-109.4s48.37-109.4,103.39-109.4c34.88,0,55.17,12.99,75.54,25.94,22.77,14.47,53.11,33.9,94.88,33.9,25.79,0,50.69-10.85,69.29-20.88,12.83-6.91,22.8-12.53,37.89-12.53,35.95,0,62.63,38.01,62.63,82.97s-26.68,82.97-62.63,82.97Z"/><path class="cls-1" d="M1354.96,391.48c-75.67,0-137.24-61.57-137.24-137.24v-124.55c0-21.74,17.63-39.37,39.37-39.37s39.37,17.63,39.37,39.37v124.55c0,32.26,26.25,58.51,58.51,58.51s58.51-26.25,58.51-58.51v-124.55c0-21.74,17.63-39.37,39.37-39.37s39.37,17.63,39.37,39.37v124.55c0,75.67-61.57,137.24-137.24,137.24Z"/><path class="cls-1" d="M1831.5,90.34c-32.72,0-64.77,13.95-82.93,34.96-18.16-21.02-50.2-34.96-82.93-34.96-67.43,0-122.29,54.86-122.29,122.29v139.5c0,21.74,17.63,39.37,39.37,39.37s39.37-17.63,39.37-39.37V212.63c0-24.02,19.54-43.56,43.56-43.56s43.56,19.54,43.56,43.56v139.5c0,21.74,17.63,39.37,39.37,39.37s39.37-17.63,39.37-39.37V212.63c0-24.02,19.54-43.56,43.56-43.56s43.56,19.54,43.56,43.56v139.5c0,21.74,17.63,39.37,39.37,39.37s39.37-17.63,39.37-39.37V212.63c0-67.43-54.86-122.29-122.29-122.29Z"/><path class="cls-1" d="M877.93,90.34c-83.03,0-150.58,67.55-150.58,150.58v214.72c0,21.74,17.63,39.37,39.37,39.37s39.37-17.63,39.37-39.37v-84.7c18.12,13.04,45.85,20.56,71.85,20.56,83.03,0,150.58-67.55,150.58-150.58s-67.55-150.58-150.58-150.58Zm0,222.43c-39.62,0-71.85-32.23-71.85-71.85s32.23-71.85,71.85-71.85,71.85,32.23,71.85,71.85-32.23,71.85-71.85,71.85Z"/><path class="cls-1" d="M1116.27,391.49c-21.74,0-39.37-17.63-39.37-39.37V129.7c0-21.74,17.63-39.37,39.37-39.37s39.37,17.63,39.37,39.37v222.42c0,21.74-17.63,39.37-39.37,39.37Z"/><circle class="cls-1" cx="2052.83" cy="352.13" r="39.36" transform="translate(21.51 812.39) rotate(-22.5)"/></svg>