<?xml version="1.0" encoding="UTF-8"?><svg id="Layer_1" xmlns="http://www.w3.org/2000/svg" xmlns:xlink="http://www.w3.org/1999/xlink" viewBox="0 0 4156 500"><defs><style>.cls-1{fill:#197cd8;}.cls-2{fill:url(#linear-gradient);}</style><linearGradient id="linear-gradient" x1="15.23" y1="250.84" x2="656.33" y2="250.84" gradientTransform="matrix(1, 0, 0, 1, 0, 0)" gradientUnits="userSpaceOnUse"><stop offset="0" stop-color="#31eda9"/><stop offset=".06" stop-color="#71ee74"/><stop offset=".13" stop-color="#adf042"/><stop offset=".18" stop-color="#d9f11e"/><stop offset=".22" stop-color="#f4f108"/><stop offset=".25" stop-color="#fff200"/><stop offset=".27" stop-color="#fedb0e"/><stop offset=".38" stop-color="#f96759"/><stop offset=".46" stop-color="#f71e89"/><stop offset=".5" stop-color="#f6029c"/><stop offset=".5" stop-color="#ef059d"/><stop offset=".56" stop-color="#bd20ab"/><stop offset=".61" stop-color="#9139b7"/><stop offset=".66" stop-color="#6c4dc1"/><stop offset=".72" stop-color="#4e5ec9"/><stop offset=".78" stop-color="#366bcf"/><stop offset=".84" stop-color="#2574d4"/><stop offset=".91" stop-color="#1c7ad7"/><stop offset="1" stop-color="#197cd8"/></linearGradient></defs><g><path class="cls-2" d="M525.31,92.46c-43.62,0-62.52,23.07-96.88,23.07-21.79,0-35.31-10.84-51.84-22.85-22.9-16.64-67.28-67.67-149.26-67.67C113.91,25,14.54,119.57,15.23,250.83h0c-.69,131.27,98.68,225.84,212.08,225.84,81.98,0,126.36-51.03,149.26-67.67,16.53-12.01,30.06-22.85,51.84-22.85,34.36,0,53.26,23.07,96.88,23.07,75.22,0,131.02-71.98,131.02-158.79s-55.8-157.97-131.02-157.97Zm2.99,237.96c-14.48,0-24.04-5.38-36.35-12.02-17.84-9.61-41.72-20.03-66.46-20.03-40.07,0-69.17,18.63-91.01,32.51-19.54,12.42-39,24.88-72.45,24.88-52.78,0-99.17-45.29-99.17-104.94s46.39-104.94,99.17-104.94c33.46,0,52.91,12.46,72.45,24.88,21.84,13.88,50.94,32.51,91.01,32.51,24.74,0,48.62-10.41,66.46-20.03,12.31-6.63,21.87-12.02,36.35-12.02,34.48,0,60.07,36.46,60.07,79.59s-25.59,79.58-60.07,79.58Z"/><path class="cls-1" d="M1307.39,395.71c-72.58,0-131.63-59.05-131.63-131.63v-119.46c0-20.85,16.91-37.76,37.76-37.76s37.76,16.91,37.76,37.76v119.46c0,30.94,25.18,56.12,56.12,56.12s56.12-25.18,56.12-56.12v-119.46c0-20.85,16.91-37.76,37.76-37.76s37.76,16.91,37.76,37.76v119.46c0,72.58-59.05,131.63-131.63,131.63Z"/><path class="cls-1" d="M1764.48,106.85c-31.39,0-62.12,13.38-79.54,33.54-17.42-20.16-48.16-33.54-79.54-33.54-64.68,0-117.3,52.62-117.3,117.3v133.81c0,20.85,16.91,37.76,37.76,37.76s37.76-16.91,37.76-37.76V224.15c0-23.04,18.75-41.78,41.78-41.78s41.78,18.75,41.78,41.78v133.81c0,20.85,16.91,37.76,37.76,37.76s37.76-16.91,37.76-37.76V224.15c0-23.04,18.75-41.78,41.78-41.78s41.78,18.75,41.78,41.78v133.81c0,20.85,16.91,37.76,37.76,37.76s37.76-16.91,37.76-37.76V224.15c0-64.68-52.62-117.3-117.3-117.3Z"/><path class="cls-1" d="M849.83,106.85c-79.64,0-144.43,64.79-144.43,144.43v205.95c0,20.85,16.91,37.76,37.76,37.76s37.76-16.91,37.76-37.76v-81.24c17.38,12.51,43.98,19.72,68.92,19.72,79.64,0,144.43-64.79,144.43-144.43s-64.79-144.43-144.43-144.43Zm0,213.35c-38,0-68.92-30.91-68.92-68.91s30.91-68.92,68.92-68.92,68.91,30.91,68.91,68.92-30.91,68.91-68.91,68.91Z"/><path class="cls-1" d="M1078.45,395.71c-20.85,0-37.76-16.91-37.76-37.76V144.61c0-20.85,16.91-37.76,37.76-37.76s37.76,16.91,37.76,37.76v213.34c0,20.85-16.91,37.76-37.76,37.76Z"/><circle class="cls-1" cx="1976.78" cy="357.96" r="37.76" transform="translate(13.49 783.73) rotate(-22.5)"/></g><path class="cls-1" d="M4011.46,255.65l121.86-102.66c8.93-7.61,9.99-21.02,2.38-29.94-7.61-8.93-21.03-9.98-29.94-2.38l-136.34,116.28V26.24c0-11.73-9.51-21.24-21.24-21.24s-21.24,9.51-21.24,21.24V374.48c0,11.73,9.51,21.24,21.24,21.24s21.24-9.51,21.24-21.24v-100.12l136.34,116.28c4,3.41,8.9,5.08,13.77,5.08,6,0,11.97-2.53,16.17-7.46,7.61-8.92,6.55-22.33-2.38-29.94l-121.86-102.67Z"/><path class="cls-1" d="M3038.88,395.72c36.65,0,69.94-18.99,88.6-46.78,18.66,27.79,51.95,46.78,88.6,46.78,60.57,0,109.84-49.28,109.84-109.84V136.83c0-11.73-9.51-21.24-21.24-21.24s-21.24,9.51-21.24,21.24v149.05c0,37.15-30.22,67.36-67.36,67.36s-67.36-30.22-67.36-67.36V136.83c0-11.73-9.51-21.24-21.24-21.24s-21.24,9.51-21.24,21.24v149.05c0,37.15-30.22,67.36-67.36,67.36s-67.36-30.22-67.36-67.36V136.83c0-11.73-9.51-21.24-21.24-21.24s-21.24,9.51-21.24,21.24v149.05c0,60.57,49.28,109.84,109.84,109.84Z"/><path class="cls-1" d="M2852.44,353.24c-53.81,0-97.59-43.78-97.59-97.59v-97.5h97.59c10.95,0,19.82-8.88,19.82-19.82s-8.88-19.82-19.82-19.82h-97.59V26.24c0-11.73-9.51-21.24-21.24-21.24s-21.24,9.51-21.24,21.24V255.65c0,77.23,62.83,140.06,140.06,140.06,11.73,0,21.24-9.51,21.24-21.24s-9.51-21.24-21.24-21.24Z"/><path class="cls-1" d="M3738.96,395.72c-11.73,0-21.24-9.51-21.24-21.24v-118.82c0-77.23,62.83-140.06,140.06-140.06,11.73,0,21.24,9.51,21.24,21.24s-9.51,21.24-21.24,21.24c-53.81,0-97.59,43.78-97.59,97.59v118.82c0,11.73-9.51,21.24-21.24,21.24Z"/><path class="cls-1" d="M2305.95,395.72c-11.73,0-21.24-9.51-21.24-21.24V241.4c0-45.95-37.38-83.33-83.33-83.33s-83.33,37.38-83.33,83.33v133.08c0,11.73-9.51,21.24-21.24,21.24s-21.24-9.51-21.24-21.24V241.4c0-69.37,56.44-125.81,125.81-125.81s125.81,56.44,125.81,125.81v133.08c0,11.73-9.51,21.24-21.24,21.24Z"/><path class="cls-1" d="M2662.33,255.65c0-77.23-62.83-140.06-140.06-140.06s-140.06,62.83-140.06,140.06,62.83,140.06,140.06,140.06c21.27,0,41.7-4.65,60.74-13.83,10.57-5.09,15-17.79,9.91-28.36-5.09-10.57-17.79-15-28.36-9.91-13.23,6.38-27.46,9.61-42.29,9.61-45.11,0-83.06-30.81-94.19-72.47h213.04c11.73-.01,21.23-9.54,21.22-21.26v-3.85Zm-140.07-97.59c48.85,0,89.32,36.12,96.38,83.05h-192.76c7.06-46.92,47.52-83.05,96.38-83.05Z"/><path class="cls-1" d="M3526.42,395.72c-77.23,0-140.06-62.83-140.06-140.06s62.83-140.06,140.06-140.06,140.06,62.83,140.06,140.06-62.83,140.06-140.06,140.06Zm0-237.65c-53.81,0-97.59,43.78-97.59,97.59s43.78,97.59,97.59,97.59,97.59-43.78,97.59-97.59-43.78-97.59-97.59-97.59Z"/></svg>